<svg width="266" height="280" viewBox="0 0 266 280" fill="none" xmlns="http://www.w3.org/2000/svg">
<path fill-rule="evenodd" clip-rule="evenodd" d="M94.853 132.401C116.542 132.401 135.676 119.118 147.046 98.8827C155.596 109.98 167.111 116.78 179.778 116.78C186.616 116.78 193.118 114.799 199 111.229V123C199 129.019 194.569 134.002 188.791 134.867C187.048 155.115 174.531 172.283 157 180.611V199H161C200.764 199 233 231.236 233 271L233 280C260.901 264.068 245.741 241.174 235.211 225.273L235.211 225.273L235.211 225.273C231.234 219.267 227.918 214.259 227.831 211C227.687 206.383 230.972 203.164 234.995 199.223C241.205 193.139 249.173 185.332 249.003 168C248.489 152.166 239.202 145.747 230.894 140.005C230.028 139.407 229.174 138.816 228.34 138.222C222.508 134.069 217.735 129.791 217.803 122C217.747 115.799 218.941 110.787 220.179 105.591C221.836 98.6326 223.572 91.3452 222.492 80.432C221.907 74.5246 220.497 67.5549 217.803 59C206.166 22.5393 176.089 13.7682 133.003 13.016V13C132.836 13.0024 132.669 13.005 132.503 13.0076C132.336 13.005 132.17 13.0024 132.003 13V13.016C88.9166 13.7682 58.8396 22.5393 47.2027 59C40.6794 79.7123 41.6844 91.1326 43.702 100.681C44.0572 102.362 44.4438 103.985 44.8262 105.59M32.0053 280H33V271C33 231.236 65.2355 199 105 199H109V180.611C91.4692 172.283 78.9518 155.115 77.2086 134.867C71.958 134.081 67.8197 129.894 67.1083 124.619C75.4827 129.603 84.8989 132.401 94.853 132.401M32.0053 280C4.10384 264.068 19.264 241.174 29.7939 225.273C33.7708 219.267 37.0872 214.259 37.1741 211C37.3179 206.383 34.0329 203.164 30.01 199.223C23.8005 193.139 15.8327 185.332 16.0027 168C16.5164 152.166 25.8029 145.747 34.1115 140.005C41.035 135.22 47.2795 130.904 47.2027 122C47.2578 115.799 46.0639 110.787 44.8263 105.591" fill="#314756"/>
<mask id="mask0_0_931" style="mask-type:luminance" maskUnits="userSpaceOnUse" x="16" y="13" width="234" height="267">
<path fill-rule="evenodd" clip-rule="evenodd" d="M94.853 132.401C116.542 132.401 135.676 119.118 147.046 98.8827C155.596 109.98 167.111 116.78 179.778 116.78C186.616 116.78 193.118 114.799 199 111.229V123C199 129.019 194.569 134.002 188.791 134.867C187.048 155.115 174.531 172.283 157 180.611V199H161C200.764 199 233 231.236 233 271L233 280C260.901 264.068 245.741 241.174 235.211 225.273L235.211 225.273L235.211 225.273C231.234 219.267 227.918 214.259 227.831 211C227.687 206.383 230.972 203.164 234.995 199.223C241.205 193.139 249.173 185.332 249.003 168C248.489 152.166 239.202 145.747 230.894 140.005C230.028 139.407 229.174 138.816 228.34 138.222C222.508 134.069 217.735 129.791 217.803 122C217.747 115.799 218.941 110.787 220.179 105.591C221.836 98.6326 223.572 91.3452 222.492 80.432C221.907 74.5246 220.497 67.5549 217.803 59C206.166 22.5393 176.089 13.7682 133.003 13.016V13C132.836 13.0024 132.669 13.005 132.503 13.0076C132.336 13.005 132.17 13.0024 132.003 13V13.016C88.9166 13.7682 58.8396 22.5393 47.2027 59C40.6794 79.7123 41.6844 91.1326 43.702 100.681C44.0572 102.362 44.4438 103.985 44.8262 105.59M32.0053 280H33V271C33 231.236 65.2355 199 105 199H109V180.611C91.4692 172.283 78.9518 155.115 77.2086 134.867C71.958 134.081 67.8197 129.894 67.1083 124.619C75.4827 129.603 84.8989 132.401 94.853 132.401M32.0053 280C4.10384 264.068 19.264 241.174 29.7939 225.273C33.7708 219.267 37.0872 214.259 37.1741 211C37.3179 206.383 34.0329 203.164 30.01 199.223C23.8005 193.139 15.8327 185.332 16.0027 168C16.5164 152.166 25.8029 145.747 34.1115 140.005C41.035 135.22 47.2795 130.904 47.2027 122C47.2578 115.799 46.0639 110.787 44.8263 105.591" fill="white"/>
</mask>
<g mask="url(#mask0_0_931)">
<rect x="1" width="264" height="280" fill="#4A312C"/>
</g>
<mask id="mask1_0_931" style="mask-type:luminance" maskUnits="userSpaceOnUse" x="16" y="13" width="234" height="267">
<path fill-rule="evenodd" clip-rule="evenodd" d="M44.8262 105.59C44.4438 103.985 44.0572 102.362 43.702 100.681ZM43.702 100.681C41.6844 91.1326 40.6794 79.7123 47.2027 59C58.8396 22.5393 88.9166 13.7682 132.003 13.016V13C132.17 13.0024 132.336 13.005 132.503 13.0076C132.669 13.005 132.836 13.0024 133.003 13V13.016C176.089 13.7682 206.166 22.5393 217.803 59C220.497 67.5549 221.907 74.5246 222.492 80.432C223.572 91.3452 221.836 98.6326 220.179 105.591C218.941 110.787 217.747 115.799 217.803 122C217.735 129.791 222.508 134.069 228.34 138.222C229.174 138.816 230.028 139.407 230.894 140.005C239.202 145.747 248.489 152.166 249.003 168C249.173 185.332 241.205 193.139 234.995 199.223C230.972 203.164 227.687 206.383 227.831 211C227.918 214.259 231.234 219.267 235.211 225.273L235.211 225.273L235.211 225.273C245.741 241.174 260.901 264.068 233 280L233 271C233 231.236 200.764 199 161 199H157V153H109V199H105C65.2355 199 33 231.236 33 271V280H32.0053C4.10384 264.068 19.264 241.174 29.7939 225.273C33.7708 219.267 37.0872 214.259 37.1741 211C37.3179 206.383 34.0329 203.164 30.01 199.223C23.8005 193.139 15.8327 185.332 16.0027 168C16.5164 152.166 25.8029 145.747 34.1115 140.005C41.035 135.22 47.2795 130.904 47.2027 122C47.2578 115.799 46.0639 110.787 44.8263 105.591" fill="white"/>
</mask>
<g mask="url(#mask1_0_931)">
<path fill-rule="evenodd" clip-rule="evenodd" d="M97.4595 93.204C79.5235 100.559 61.7569 107.845 50.7587 122.446C50.4283 122.885 50.0609 123.392 49.6739 123.936C61.2543 111.942 78.4876 105.501 95.873 99.0033C115.54 91.6529 135.402 84.2298 147.495 68.6119C163.59 91.5596 191.207 111.145 221.88 121.603C222.04 121.191 222.059 120.744 222.079 120.298C222.098 119.865 222.116 119.433 222.264 119.036C222.738 116.2 223.436 113.528 224.148 110.804C226.819 100.587 229.684 89.6246 221.665 66.4186C220.996 64.509 219.898 62.7045 218.42 61.0049C225.322 83.9993 222.663 95.1647 220.179 105.591C219.498 108.451 218.83 111.255 218.376 114.233C218.235 114.649 218.217 115.102 218.199 115.557C218.181 116.025 218.162 116.494 218.009 116.927C188.665 105.95 162.244 85.3904 146.846 61.3024C135.276 77.6963 116.275 85.4883 97.4595 93.204ZM46.099 128.057C46.8225 126.285 47.2226 124.295 47.2028 122C47.258 115.799 46.0641 110.787 44.8265 105.591C42.343 95.1647 39.6835 83.9993 46.5861 61.0049C45.1072 62.7045 44.0098 64.509 43.3411 66.4186C35.3219 89.6246 38.187 100.587 40.8572 110.804C42.1508 115.754 43.3988 120.529 43.3411 126.436C43.375 130.012 42.2347 132.811 40.362 135.194C40.4797 135.429 42.0866 133.312 43.8548 130.983C44.6078 129.991 45.3901 128.961 46.099 128.057Z" fill="black" fill-opacity="0.16"/>
</g>
<path fill-rule="evenodd" clip-rule="evenodd" d="M50.7584 122.446C73.2939 92.5274 124.247 93.3241 146.845 61.3024C162.243 85.3904 188.664 105.95 218.009 116.927C218.31 116.073 218.09 115.077 218.376 114.233C220.531 100.089 227.52 89.8552 217.802 59C206.166 22.5393 176.089 13.7682 133.003 13.016C132.336 13.005 132.169 13.0024 132.003 13C88.9165 13.7682 58.8395 22.5393 47.2025 59C35.8138 95.1607 47.3715 102.999 47.2025 122C47.2349 125.753 46.144 128.691 44.3524 131.193C44.536 131.595 48.506 125.437 50.7584 122.446Z" fill="white" fill-opacity="0.1"/>
</svg>
